<svg data-v-fde0c5aa="" xmlns="http://www.w3.org/2000/svg" viewBox="0 0 300 300" class="iconLeftSlogan"><!----><defs data-v-fde0c5aa=""><!----></defs><rect data-v-fde0c5aa="" fill="#E5F4F3" x="0" y="0" width="300px" height="300px" class="logo-background-square"></rect><defs data-v-fde0c5aa=""><!----></defs><g data-v-fde0c5aa="" id="a704caa5-f7d5-4130-a3a1-8726f32375da" fill="#09322F" transform="matrix(1.909587347598253,0,0,1.909587347598253,94.72521447350576,129.52591337110672)"><path d="M5.04 4.65L5.04 4.65C5.70 4.65 6.23 4.16 6.23 3.50C6.23 2.83 5.70 2.34 5.04 2.34L3.28 2.34C3.07 2.34 3.07 2.66 3.28 2.66L5.04 2.66C5.52 2.66 5.91 3.01 5.91 3.50C5.91 3.98 5.52 4.34 5.04 4.34L4.48 4.34C4.38 4.34 4.31 4.41 4.31 4.49C4.31 4.58 4.38 4.65 4.48 4.65ZM6.01 10.40L6.01 10.40L3.40 6.93C3.35 6.86 3.25 6.85 3.18 6.89C3.14 6.93 3.11 6.99 3.12 7.03L3.12 10.50C3.12 10.58 3.19 10.67 3.28 10.67C3.36 10.67 3.44 10.58 3.44 10.50L3.44 7.50L5.74 10.58C5.80 10.67 5.91 10.68 5.98 10.63C6.05 10.57 6.06 10.47 6.01 10.40ZM1.44 10.50L1.44 10.50L1.44 0.66L5.21 0.66C6.78 0.66 8.01 1.95 8.01 3.50C8.01 5.04 6.78 6.33 5.21 6.33C5.12 6.33 5.05 6.40 5.05 6.50C5.05 6.54 5.07 6.58 5.10 6.61L8.18 10.58C8.25 10.67 8.34 10.68 8.41 10.61C8.48 10.57 8.50 10.47 8.44 10.40L5.54 6.65C7.14 6.48 8.34 5.10 8.34 3.50C8.34 1.76 6.96 0.32 5.21 0.32L1.27 0.32C1.19 0.32 1.12 0.41 1.12 0.49L1.12 10.50C1.12 10.58 1.19 10.67 1.27 10.67C1.37 10.67 1.44 10.58 1.44 10.50ZM14.22 6.33L14.22 6.33L11.98 6.33C11.89 6.33 11.82 6.40 11.82 6.50L11.82 8.50C11.82 8.58 11.89 8.65 11.98 8.65L15.16 8.65C15.25 8.65 15.32 8.58 15.32 8.50C15.32 8.40 15.25 8.33 15.16 8.33L12.14 8.33L12.14 6.65L14.22 6.65C14.32 6.65 14.39 6.58 14.39 6.50C14.39 6.40 14.32 6.33 14.22 6.33ZM15.16 2.34L15.16 2.34L11.98 2.34C11.89 2.34 11.82 2.41 11.82 2.49L11.82 4.49C11.82 4.58 11.89 4.66 11.98 4.66L14.22 4.66C14.32 4.66 14.39 4.58 14.39 4.49C14.39 4.41 14.32 4.33 14.22 4.33L12.14 4.33L12.14 2.66L15.16 2.66C15.25 2.66 15.32 2.59 15.32 2.49C15.32 2.41 15.25 2.34 15.16 2.34ZM15.16 10.33L15.16 10.33L10.14 10.33L10.14 0.66L15.16 0.66C15.25 0.66 15.32 0.59 15.32 0.49C15.32 0.41 15.25 0.34 15.16 0.34L9.98 0.34C9.88 0.34 9.81 0.41 9.81 0.49L9.81 10.50C9.81 10.58 9.88 10.65 9.98 10.65L15.16 10.65C15.25 10.65 15.32 10.58 15.32 10.50C15.32 10.40 15.25 10.33 15.16 10.33ZM16.81 9.98L16.81 9.98C17.37 10.26 17.91 10.44 18.41 10.56C20.96 11.16 23.21 10.07 23.21 7.53C23.21 5.00 20.15 4.48 19.52 4.00C19.32 3.85 19.21 3.63 19.21 3.42C19.19 2.94 19.57 2.69 19.99 2.63C20.65 2.56 21.50 2.83 21.99 3.02C22.19 3.11 22.32 2.81 22.12 2.73C21.31 2.39 20.68 2.27 20.01 2.31C19.36 2.34 18.86 2.81 18.89 3.46C18.97 4.73 20.71 4.47 22.08 5.75C23.27 6.85 23.06 8.60 22.11 9.56C20.86 10.81 18.59 10.54 16.98 9.70C16.79 9.60 16.63 9.88 16.81 9.98ZM22.37 0.71L22.37 0.71C21.71 0.49 21.21 0.38 20.82 0.32C18.56 0.01 16.87 1.32 16.87 3.49C16.87 6.09 19.94 6.45 20.59 7C20.92 7.29 20.97 7.80 20.64 8.11C19.94 8.75 18.13 8.23 17.25 7.62C17.08 7.50 16.88 7.76 17.07 7.88C17.96 8.54 19.10 8.76 19.98 8.71C20.64 8.67 21.22 8.20 21.18 7.55C21.10 6.26 19.39 6.50 18.02 5.31C16.81 4.23 17.04 2.45 17.93 1.48C19.04 0.28 20.76 0.49 22.26 1.01C22.46 1.09 22.57 0.78 22.37 0.71ZM28.81 4.65L28.81 4.65C29.37 4.65 29.72 4.35 29.89 3.96C30.02 3.67 30.02 3.32 29.89 3.02C29.72 2.63 29.37 2.34 28.81 2.34L27.05 2.34C26.95 2.34 26.88 2.41 26.88 2.49C26.88 2.59 26.95 2.66 27.05 2.66L28.81 2.66C29.22 2.66 29.48 2.88 29.60 3.15C29.68 3.37 29.68 3.63 29.60 3.84C29.48 4.13 29.20 4.34 28.81 4.34L28.24 4.34C28.15 4.34 28.08 4.41 28.08 4.49C28.08 4.58 28.15 4.65 28.24 4.65ZM25.21 10.50L25.21 10.50L25.21 0.66L28.98 0.66C30.30 0.66 31.14 1.39 31.51 2.34C31.79 3.07 31.79 3.92 31.51 4.65C31.14 5.60 30.30 6.33 28.98 6.33L27.05 6.33C26.95 6.33 26.88 6.40 26.88 6.48L26.88 10.50C26.88 10.58 26.95 10.65 27.05 10.65C27.13 10.65 27.20 10.58 27.20 10.50L27.20 6.66L28.98 6.66C30.45 6.66 31.40 5.82 31.82 4.79C32.13 3.96 32.13 3.02 31.82 2.21C31.40 1.16 30.45 0.34 28.98 0.34L25.05 0.34C24.96 0.34 24.89 0.42 24.89 0.50L24.89 10.50C24.89 10.58 24.96 10.65 25.05 10.65C25.13 10.65 25.21 10.58 25.21 10.50ZM43.82 3.86L43.82 3.86C43.11 1.64 40.98 0.13 38.64 0.13C35.48 0.13 33.29 2.39 33.29 5.47C33.29 8.57 35.48 10.84 38.64 10.84C40.98 10.84 43.11 9.34 43.82 7.08C43.85 7 43.79 6.90 43.71 6.87C43.61 6.85 43.53 6.89 43.50 6.99C42.83 9.10 40.85 10.50 38.64 10.50C35.67 10.50 33.61 8.39 33.61 5.47C33.61 2.56 35.67 0.46 38.64 0.46C40.85 0.46 42.83 1.86 43.50 3.96C43.53 4.06 43.61 4.10 43.71 4.07C43.79 4.06 43.85 3.95 43.82 3.86ZM35.84 7.11L35.84 7.11C36.41 8.12 37.48 8.76 38.64 8.76C40.45 8.76 41.87 7.27 41.87 5.47C41.87 3.70 40.45 2.20 38.64 2.20C37.48 2.20 36.41 2.83 35.84 3.84C35.80 3.92 35.83 4.02 35.90 4.07C35.98 4.12 36.09 4.09 36.13 4.00C36.64 3.09 37.59 2.52 38.64 2.52C40.26 2.52 41.54 3.86 41.54 5.47C41.54 7.08 40.26 8.43 38.64 8.43C37.59 8.43 36.64 7.85 36.13 6.94C36.09 6.87 35.98 6.85 35.90 6.89C35.83 6.93 35.80 7.04 35.84 7.11ZM54.19 10.50L54.19 10.50L54.19 0.50C54.19 0.28 53.86 0.28 53.86 0.50L53.86 10.50C53.86 10.71 54.19 10.71 54.19 10.50ZM46.03 10.50L46.03 10.50L46.03 0.50C46.03 0.28 45.71 0.28 45.71 0.50L45.71 10.50C45.71 10.71 46.03 10.71 46.03 10.50ZM47.56 0.59L47.56 0.59L51.90 6.82C51.98 6.96 52.21 6.87 52.21 6.72L52.21 0.50C52.21 0.28 51.87 0.28 51.87 0.50L51.87 6.20L47.81 0.41C47.70 0.22 47.43 0.42 47.56 0.59ZM52.36 10.40L52.36 10.40L48.02 4.17C47.91 4.05 47.71 4.12 47.71 4.27L47.71 10.50C47.71 10.71 48.05 10.71 48.05 10.50L48.05 4.79L52.08 10.60C52.22 10.77 52.47 10.58 52.36 10.40ZM56.07 9.98L56.07 9.98C56.63 10.26 57.16 10.44 57.67 10.56C60.21 11.16 62.47 10.07 62.47 7.53C62.47 5.00 59.40 4.48 58.77 4.00C58.58 3.85 58.46 3.63 58.46 3.42C58.45 2.94 58.83 2.69 59.25 2.63C59.91 2.56 60.76 2.83 61.25 3.02C61.45 3.11 61.57 2.81 61.38 2.73C60.56 2.39 59.93 2.27 59.26 2.31C58.62 2.34 58.11 2.81 58.14 3.46C58.23 4.73 59.96 4.47 61.33 5.75C62.52 6.85 62.31 8.60 61.36 9.56C60.12 10.81 57.85 10.54 56.24 9.70C56.04 9.60 55.89 9.88 56.07 9.98ZM61.63 0.71L61.63 0.71C60.97 0.49 60.47 0.38 60.07 0.32C57.82 0.01 56.13 1.32 56.13 3.49C56.13 6.09 59.19 6.45 59.85 7C60.17 7.29 60.23 7.80 59.89 8.11C59.19 8.75 57.39 8.23 56.50 7.62C56.34 7.50 56.14 7.76 56.32 7.88C57.22 8.54 58.35 8.76 59.23 8.71C59.89 8.67 60.48 8.20 60.44 7.55C60.35 6.26 58.65 6.50 57.27 5.31C56.07 4.23 56.29 2.45 57.19 1.48C58.30 0.28 60.02 0.49 61.52 1.01C61.71 1.09 61.82 0.78 61.63 0.71ZM68.08 8.67L68.08 8.67C68.75 8.67 69.29 8.16 69.29 7.49C69.29 6.83 68.75 6.34 68.08 6.34L66.33 6.34C66.23 6.34 66.15 6.41 66.15 6.50C66.15 6.58 66.23 6.65 66.33 6.65L68.08 6.65C68.56 6.65 68.95 7 68.95 7.49C68.95 7.98 68.56 8.33 68.08 8.33L67.51 8.33C67.42 8.33 67.35 8.41 67.35 8.50C67.35 8.58 67.42 8.67 67.51 8.67ZM66.33 2.65L66.33 2.65L68.08 2.65C68.56 2.65 68.95 3.00 68.95 3.49C68.95 3.98 68.56 4.33 68.08 4.33L67.51 4.33C67.42 4.33 67.35 4.40 67.35 4.49C67.35 4.58 67.42 4.65 67.51 4.65L68.08 4.65C68.75 4.65 69.29 4.14 69.29 3.49C69.29 2.83 68.75 2.32 68.08 2.32L66.33 2.32C66.22 2.32 66.15 2.39 66.15 2.48C66.15 2.56 66.22 2.65 66.33 2.65ZM64.48 10.50L64.48 10.50L64.48 0.63L68.26 0.63C69.83 0.63 71.06 1.92 71.06 3.49C71.06 4.19 70.83 4.86 70.36 5.39C70.31 5.45 70.31 5.54 70.36 5.60C70.83 6.13 71.06 6.79 71.06 7.49C71.06 9.04 69.83 10.35 68.26 10.35L66.33 10.35C66.23 10.35 66.16 10.42 66.16 10.50C66.16 10.61 66.23 10.68 66.33 10.68L68.26 10.68C70.01 10.68 71.40 9.24 71.40 7.49C71.40 6.76 71.15 6.06 70.70 5.49C71.15 4.93 71.40 4.21 71.40 3.49C71.40 1.74 70.01 0.29 68.26 0.29L64.30 0.29C64.22 0.29 64.15 0.38 64.15 0.48L64.15 10.50C64.15 10.61 64.22 10.68 64.30 10.68C64.40 10.68 64.48 10.61 64.48 10.50ZM79.16 10.33L79.16 10.33L73.50 10.33L73.50 0.49C73.50 0.41 73.43 0.34 73.33 0.34C73.25 0.34 73.18 0.41 73.18 0.49L73.18 10.50C73.18 10.58 73.25 10.65 73.33 10.65L79.16 10.65C79.25 10.65 79.32 10.58 79.32 10.50C79.32 10.40 79.25 10.33 79.16 10.33ZM75.17 0.49L75.17 0.49L75.17 8.50C75.17 8.58 75.25 8.65 75.33 8.65L79.16 8.65C79.25 8.65 79.32 8.58 79.32 8.50C79.32 8.40 79.25 8.33 79.16 8.33L75.50 8.33L75.50 0.49C75.50 0.41 75.42 0.34 75.33 0.34C75.25 0.34 75.17 0.41 75.17 0.49ZM85.46 6.33L85.46 6.33L83.22 6.33C83.12 6.33 83.05 6.40 83.05 6.50L83.05 8.50C83.05 8.58 83.12 8.65 83.22 8.65L86.39 8.65C86.48 8.65 86.55 8.58 86.55 8.50C86.55 8.40 86.48 8.33 86.39 8.33L83.37 8.33L83.37 6.65L85.46 6.65C85.55 6.65 85.62 6.58 85.62 6.50C85.62 6.40 85.55 6.33 85.46 6.33ZM86.39 2.34L86.39 2.34L83.22 2.34C83.12 2.34 83.05 2.41 83.05 2.49L83.05 4.49C83.05 4.58 83.12 4.66 83.22 4.66L85.46 4.66C85.55 4.66 85.62 4.58 85.62 4.49C85.62 4.41 85.55 4.33 85.46 4.33L83.37 4.33L83.37 2.66L86.39 2.66C86.48 2.66 86.55 2.59 86.55 2.49C86.55 2.41 86.48 2.34 86.39 2.34ZM86.39 10.33L86.39 10.33L81.37 10.33L81.37 0.66L86.39 0.66C86.48 0.66 86.55 0.59 86.55 0.49C86.55 0.41 86.48 0.34 86.39 0.34L81.21 0.34C81.12 0.34 81.05 0.41 81.05 0.49L81.05 10.50C81.05 10.58 81.12 10.65 81.21 10.65L86.39 10.65C86.48 10.65 86.55 10.58 86.55 10.50C86.55 10.40 86.48 10.33 86.39 10.33Z"></path></g><defs data-v-fde0c5aa=""><linearGradient data-v-fde0c5aa="" gradientTransform="rotate(25)" id="12dc6c27-c7cc-4896-9c03-9ea898c7d752" x1="0%" y1="0%" x2="100%" y2="0%"><stop data-v-fde0c5aa="" offset="0%" stop-color="#177775" stop-opacity="1"></stop><stop data-v-fde0c5aa="" offset="100%" stop-color="#28D2BF" stop-opacity="1"></stop></linearGradient></defs><g data-v-fde0c5aa="" id="5bf9c557-3bdd-4b87-920f-713c0d4c6841" stroke="none" fill="url(#12dc6c27-c7cc-4896-9c03-9ea898c7d752)" transform="matrix(1.3707485097475445,0,0,1.3707485097475445,40,128.0680238440393)"><path d="M16 32c8.837 0 16-7.163 16-16S24.837 0 16 0 0 7.163 0 16s7.163 16 16 16zM14.817 6.421h2v8.886h8.887v2H14.817V6.421zm-5.959.437h2v14.283h14.283v2H8.858V6.858z"></path></g><defs data-v-fde0c5aa=""><!----></defs><g data-v-fde0c5aa="" id="ab049fde-07a2-4783-b197-049f2878953c" fill="#09322F" transform="matrix(0.38402120624662867,0,0,0.38402120624662867,96.43000835069388,159.41939578631633)"><path d="M6.97 6.75C7.63 6.45 8.22 5.85 8.22 4.66C8.22 3.54 7.48 2.21 5.29 2.21L1.13 2.21L1.13 11.48L5.53 11.48C7.64 11.48 8.69 10.43 8.69 9.04C8.69 7.66 7.76 7 6.97 6.75ZM2.18 3.21L5.40 3.21C6.68 3.21 7.17 3.98 7.17 4.75C7.17 5.88 6.26 6.36 5.29 6.36L2.18 6.36ZM5.64 10.49L2.18 10.49L2.18 7.31L5.53 7.31C7 7.31 7.64 8.09 7.64 8.96C7.64 9.93 6.92 10.49 5.64 10.49ZM24.22 3.22L24.22 2.21L17.40 2.21L17.40 11.48L24.22 11.48L24.22 10.47L18.45 10.47L18.45 7.35L23.60 7.35L23.60 6.33L18.45 6.33L18.45 3.22ZM43.95 7.92L47.17 7.92L49.41 11.48L50.65 11.48L48.22 7.74C49.25 7.50 50.46 6.90 50.46 5.11C50.46 3.35 49.24 2.21 47.33 2.21L42.90 2.21L42.90 11.48L43.95 11.48ZM43.95 3.21L47.21 3.21C48.52 3.21 49.41 3.93 49.41 5.11C49.41 6.55 48.15 6.93 47.15 6.93L43.95 6.93ZM66.08 3.22L66.08 2.21L59.26 2.21L59.26 11.48L66.08 11.48L66.08 10.47L60.31 10.47L60.31 7.35L65.46 7.35L65.46 6.33L60.31 6.33L60.31 3.22ZM75.28 4.65C75.28 4.03 75.64 3.08 77.74 3.08C79.44 3.08 80.22 3.82 80.33 4.75L81.41 4.75C81.33 3.36 80.21 2.10 77.74 2.10C75.42 2.10 74.26 3.15 74.26 4.66C74.26 7.84 80.60 6.69 80.60 8.96C80.60 10.05 79.62 10.60 78.05 10.60C76.44 10.60 75.14 10.05 75.07 8.71L73.98 8.71C74.12 10.37 75.24 11.59 77.98 11.59C80.26 11.59 81.65 10.64 81.65 8.92C81.65 5.68 75.28 6.80 75.28 4.65ZM91.32 8.18L94.44 8.18C96.42 8.18 97.64 7.03 97.64 5.19C97.64 3.37 96.42 2.21 94.44 2.21L90.27 2.21L90.27 11.48L91.32 11.48ZM94.37 3.21C95.83 3.21 96.59 3.96 96.59 5.19C96.59 6.44 95.83 7.20 94.37 7.20L91.32 7.20L91.32 3.21ZM110.18 2.10C107.37 2.10 105.48 4.21 105.48 6.85C105.48 9.48 107.37 11.59 110.18 11.59C112.99 11.59 114.88 9.48 114.88 6.85C114.88 4.21 112.99 2.10 110.18 2.10ZM110.18 10.57C107.93 10.57 106.53 8.93 106.53 6.85C106.53 4.76 107.93 3.12 110.18 3.12C112.43 3.12 113.83 4.76 113.83 6.85C113.83 8.93 112.43 10.57 110.18 10.57ZM130.51 2.21L130.51 10.01L124.78 2.21L123.56 2.21L123.56 11.48L124.61 11.48L124.61 3.65L130.34 11.48L131.56 11.48L131.56 2.21ZM141.44 4.65C141.44 4.03 141.81 3.08 143.91 3.08C145.60 3.08 146.38 3.82 146.50 4.75L147.57 4.75C147.49 3.36 146.37 2.10 143.91 2.10C141.58 2.10 140.42 3.15 140.42 4.66C140.42 7.84 146.76 6.69 146.76 8.96C146.76 10.05 145.78 10.60 144.21 10.60C142.60 10.60 141.30 10.05 141.23 8.71L140.14 8.71C140.28 10.37 141.40 11.59 144.14 11.59C146.43 11.59 147.81 10.64 147.81 8.92C147.81 5.68 141.44 6.80 141.44 4.65ZM157.49 2.21L156.44 2.21L156.44 11.48L157.49 11.48ZM172.59 6.75C173.25 6.45 173.84 5.85 173.84 4.66C173.84 3.54 173.10 2.21 170.91 2.21L166.75 2.21L166.75 11.48L171.15 11.48C173.26 11.48 174.31 10.43 174.31 9.04C174.31 7.66 173.38 7 172.59 6.75ZM167.80 3.21L171.02 3.21C172.30 3.21 172.79 3.98 172.79 4.75C172.79 5.88 171.88 6.36 170.91 6.36L167.80 6.36ZM171.26 10.49L167.80 10.49L167.80 7.31L171.15 7.31C172.62 7.31 173.26 8.09 173.26 8.96C173.26 9.93 172.54 10.49 171.26 10.49ZM183.02 2.21L183.02 11.48L189.13 11.48L189.13 10.47L184.07 10.47L184.07 2.21ZM204.30 3.22L204.30 2.21L197.48 2.21L197.48 11.48L204.30 11.48L204.30 10.47L198.53 10.47L198.53 7.35L203.69 7.35L203.69 6.33L198.53 6.33L198.53 3.22ZM212.02 13.34L212.97 13.34L214.20 10.36L212.83 10.36ZM234.11 2.21L233.06 2.21L233.06 11.48L234.11 11.48ZM249.96 2.21L242.44 2.21L242.44 3.22L245.67 3.22L245.67 11.48L246.72 11.48L246.72 3.22L249.96 3.22ZM259.06 2.21L257.81 2.21L258.08 5.28L258.79 5.28ZM268.46 4.65C268.46 4.03 268.83 3.08 270.93 3.08C272.62 3.08 273.41 3.82 273.52 4.75L274.60 4.75C274.51 3.36 273.39 2.10 270.93 2.10C268.60 2.10 267.44 3.15 267.44 4.66C267.44 7.84 273.78 6.69 273.78 8.96C273.78 10.05 272.80 10.60 271.24 10.60C269.63 10.60 268.32 10.05 268.25 8.71L267.16 8.71C267.30 10.37 268.42 11.59 271.17 11.59C273.45 11.59 274.83 10.64 274.83 8.92C274.83 5.68 268.46 6.80 268.46 4.65ZM297.23 7.81L301.11 2.21L299.84 2.21L296.70 6.72L293.57 2.21L292.29 2.21L296.18 7.81L296.18 11.48L297.23 11.48ZM312.86 2.10C310.04 2.10 308.15 4.21 308.15 6.85C308.15 9.48 310.04 11.59 312.86 11.59C315.67 11.59 317.56 9.48 317.56 6.85C317.56 4.21 315.67 2.10 312.86 2.10ZM312.86 10.57C310.60 10.57 309.20 8.93 309.20 6.85C309.20 4.76 310.60 3.12 312.86 3.12C315.11 3.12 316.51 4.76 316.51 6.85C316.51 8.93 315.11 10.57 312.86 10.57ZM332.96 2.21L332.96 7.52C332.96 9.67 331.53 10.57 330.06 10.57C328.59 10.57 327.18 9.67 327.18 7.52L327.18 2.21L326.13 2.21L326.13 7.49C326.13 9.95 327.75 11.59 330.06 11.59C332.39 11.59 334.01 9.94 334.01 7.49L334.01 2.21ZM344.22 7.92L347.44 7.92L349.68 11.48L350.92 11.48L348.49 7.74C349.52 7.50 350.73 6.90 350.73 5.11C350.73 3.35 349.51 2.21 347.61 2.21L343.17 2.21L343.17 11.48L344.22 11.48ZM344.22 3.21L347.48 3.21C348.80 3.21 349.68 3.93 349.68 5.11C349.68 6.55 348.42 6.93 347.42 6.93L344.22 6.93ZM369.52 2.21L369.52 11.48L375.62 11.48L375.62 10.47L370.57 10.47L370.57 2.21ZM385.03 2.21L383.98 2.21L383.98 11.48L385.03 11.48ZM400.99 3.22L400.99 2.21L394.30 2.21L394.30 11.48L395.35 11.48L395.35 7.46L400.37 7.46L400.37 6.44L395.35 6.44L395.35 3.22ZM416.28 3.22L416.28 2.21L409.46 2.21L409.46 11.48L416.28 11.48L416.28 10.47L410.51 10.47L410.51 7.35L415.66 7.35L415.66 6.33L410.51 6.33L410.51 3.22ZM424.58 10.05L424.58 11.48L425.94 11.48L425.94 10.05Z"></path></g></svg>